<svg width="35" height="494" fill="none" xmlns="http://www.w3.org/2000/svg"><path d="M23.663 480.153c-3.721 1.425-5.572 5.569-4.133 9.254 1.44 3.686 5.622 5.519 9.344 4.094 3.721-1.426 5.572-5.569 4.133-9.255-1.44-3.686-5.622-5.518-9.344-4.093zM5.814 480.307c-3.645 1.608-5.283 5.838-3.66 9.447 1.623 3.61 5.894 5.233 9.539 3.625 3.645-1.608 5.283-5.838 3.66-9.448-1.624-3.609-5.895-5.232-9.54-3.624zM-11.379 480.157c-3.722 1.425-5.572 5.569-4.133 9.254 1.44 3.686 5.622 5.519 9.344 4.094 3.721-1.426 5.572-5.569 4.133-9.255-1.44-3.685-5.623-5.518-9.344-4.093zM33.906 462.744c-3.75.603-6.298 4.104-5.689 7.819s4.143 6.237 7.894 5.634c3.75-.603 6.298-4.103 5.69-7.818-.61-3.715-4.144-6.238-7.895-5.635zM11.127 466.797c-1.454 3.477.213 7.464 3.724 8.904 3.51 1.44 7.535-.211 8.99-3.688 1.454-3.477-.213-7.463-3.724-8.904-3.51-1.44-7.536.211-8.99 3.688zM-1.136 462.748c-3.75.603-6.298 4.103-5.689 7.818s4.143 6.238 7.894 5.635c3.751-.603 6.298-4.104 5.69-7.819-.61-3.714-4.144-6.237-7.895-5.634zM26.236 445.592c-3.605 0-6.527 2.895-6.527 6.465 0 3.571 2.922 6.465 6.527 6.465s6.528-2.894 6.528-6.465c0-3.57-2.923-6.465-6.528-6.465zM7.21 445.704c-3.51.821-5.682 4.303-4.854 7.778.828 3.475 4.344 5.627 7.852 4.807 3.51-.82 5.682-4.302 4.854-7.777-.828-3.475-4.344-5.628-7.852-4.808zM-8.798 445.592c-3.605 0-6.527 2.895-6.527 6.465 0 3.571 2.922 6.465 6.527 6.465s6.528-2.894 6.528-6.465c0-3.57-2.923-6.465-6.528-6.465zM34.996 428.574c-3.415 0-6.184 2.741-6.184 6.124 0 3.382 2.769 6.124 6.184 6.124s6.183-2.742 6.183-6.124c0-3.383-2.768-6.124-6.183-6.124zM17.477 428.574c-3.415 0-6.184 2.741-6.184 6.124 0 3.382 2.769 6.124 6.184 6.124s6.183-2.742 6.183-6.124c0-3.383-2.768-6.124-6.183-6.124zM-.042 428.574c-3.415 0-6.184 2.741-6.184 6.124 0 3.382 2.769 6.124 6.184 6.124s6.184-2.742 6.184-6.124c0-3.383-2.769-6.124-6.184-6.124zM26.238 411.572c-3.22 0-5.831 2.586-5.831 5.775 0 3.19 2.61 5.775 5.83 5.775s5.831-2.585 5.831-5.775c0-3.189-2.61-5.775-5.83-5.775zM8.719 411.581c-3.22 0-5.83 2.586-5.83 5.775 0 3.189 2.61 5.775 5.83 5.775s5.83-2.586 5.83-5.775c0-3.189-2.61-5.775-5.83-5.775zM-8.8 411.572c-3.22 0-5.831 2.586-5.831 5.775 0 3.19 2.61 5.775 5.83 5.775s5.831-2.585 5.831-5.775c0-3.189-2.61-5.775-5.83-5.775zM34.995 394.518c-3.06 0-5.54 2.455-5.54 5.487s2.48 5.486 5.54 5.486c3.061 0 5.54-2.454 5.54-5.486 0-3.032-2.479-5.487-5.54-5.487zM17.476 394.518c-3.06 0-5.54 2.455-5.54 5.487s2.48 5.486 5.54 5.486c3.061 0 5.54-2.454 5.54-5.486 0-3.032-2.479-5.487-5.54-5.487zM-.039 394.518c-3.06 0-5.54 2.455-5.54 5.487s2.48 5.486 5.54 5.486c3.061 0 5.54-2.454 5.54-5.486 0-3.032-2.479-5.487-5.54-5.487zM26.237 377.508c-2.866 0-5.186 2.298-5.186 5.137 0 2.84 2.32 5.137 5.186 5.137 2.867 0 5.187-2.297 5.187-5.137 0-2.839-2.32-5.137-5.187-5.137zM8.718 377.508c-2.867 0-5.187 2.298-5.187 5.137 0 2.84 2.32 5.138 5.187 5.138 2.867 0 5.187-2.298 5.187-5.138 0-2.839-2.32-5.137-5.187-5.137zM-8.801 377.508c-2.867 0-5.187 2.298-5.187 5.137 0 2.84 2.32 5.138 5.187 5.138 2.867 0 5.187-2.298 5.187-5.138 0-2.839-2.32-5.137-5.187-5.137zM34.998 360.446c-2.707 0-4.895 2.175-4.895 4.849 0 2.673 2.196 4.848 4.895 4.848 2.7 0 4.896-2.175 4.896-4.848 0-2.674-2.196-4.849-4.895-4.849zM17.48 360.446c-2.709 0-4.896 2.175-4.896 4.849 0 2.673 2.196 4.848 4.896 4.848 2.699 0 4.895-2.175 4.895-4.848 0-2.674-2.196-4.849-4.895-4.849zM-.04 360.446c-2.708 0-4.895 2.175-4.895 4.849 0 2.673 2.196 4.848 4.895 4.848 2.7 0 4.896-2.175 4.896-4.848 0-2.674-2.196-4.849-4.896-4.849zM26.236 343.444c-2.509 0-4.543 2.015-4.543 4.5s2.034 4.499 4.543 4.499c2.51 0 4.543-2.014 4.543-4.499s-2.034-4.5-4.543-4.5zM8.717 343.444c-2.509 0-4.543 2.015-4.543 4.5s2.034 4.499 4.543 4.499c2.51 0 4.543-2.014 4.543-4.499s-2.034-4.5-4.543-4.5zM-8.798 343.444c-2.509 0-4.543 2.015-4.543 4.5s2.034 4.499 4.543 4.499c2.51 0 4.543-2.014 4.543-4.499s-2.034-4.5-4.543-4.5zM34.998 326.382c-2.347 0-4.252 1.887-4.252 4.211 0 2.324 1.905 4.211 4.252 4.211 2.346 0 4.252-1.887 4.252-4.211 0-2.324-1.906-4.211-4.252-4.211zM17.479 326.382c-2.347 0-4.252 1.887-4.252 4.211 0 2.324 1.905 4.211 4.252 4.211 2.346 0 4.252-1.887 4.252-4.211 0-2.324-1.906-4.211-4.252-4.211zM-.04 326.382c-2.347 0-4.252 1.887-4.252 4.211 0 2.324 1.905 4.211 4.252 4.211 2.346 0 4.251-1.887 4.251-4.211 0-2.324-1.905-4.211-4.251-4.211zM26.236 309.319c-2.187 0-3.96 1.756-3.96 3.923 0 2.166 1.773 3.923 3.96 3.923 2.188 0 3.961-1.757 3.961-3.923 0-2.167-1.773-3.923-3.96-3.923zM8.717 309.319c-2.187 0-3.96 1.756-3.96 3.923s1.773 3.923 3.96 3.923c2.188 0 3.96-1.756 3.96-3.923s-1.772-3.923-3.96-3.923zM-8.802 309.319c-2.187 0-3.96 1.756-3.96 3.923s1.773 3.923 3.96 3.923c2.188 0 3.96-1.756 3.96-3.923s-1.772-3.923-3.96-3.923zM34.998 292.257c-2.029 0-3.67 1.624-3.67 3.634 0 2.009 1.641 3.634 3.67 3.634s3.67-1.625 3.67-3.634c0-2.01-1.641-3.634-3.67-3.634zM17.479 292.257c-2.029 0-3.67 1.624-3.67 3.634 0 2.009 1.641 3.634 3.67 3.634s3.67-1.625 3.67-3.634c0-2.01-1.641-3.634-3.67-3.634zM-.04 292.257c-2.03 0-3.67 1.625-3.67 3.634s1.64 3.634 3.67 3.634c2.028 0 3.669-1.625 3.669-3.634s-1.64-3.634-3.67-3.634zM26.236 275.194c-1.866 0-3.378 1.498-3.378 3.346s1.512 3.346 3.378 3.346 3.379-1.498 3.379-3.346-1.513-3.346-3.379-3.346zM8.717 275.194c-1.87 0-3.378 1.503-3.378 3.346 0 1.843 1.517 3.346 3.378 3.346 1.862 0 3.379-1.503 3.379-3.346 0-1.843-1.517-3.346-3.379-3.346zM-8.802 275.194c-1.866 0-3.378 1.498-3.378 3.346s1.512 3.346 3.378 3.346 3.379-1.498 3.379-3.346-1.513-3.346-3.379-3.346zM34.999 258.07c-1.738 0-3.15 1.398-3.15 3.119 0 1.721 1.412 3.119 3.15 3.119 1.737 0 3.149-1.398 3.149-3.119 0-1.721-1.412-3.119-3.15-3.119zM17.48 258.07c-1.738 0-3.15 1.398-3.15 3.119 0 1.721 1.412 3.119 3.15 3.119 1.737 0 3.149-1.398 3.149-3.119 0-1.721-1.412-3.119-3.15-3.119zM-.04 258.07c-1.737 0-3.149 1.398-3.149 3.119 0 1.721 1.412 3.119 3.15 3.119 1.737 0 3.149-1.398 3.149-3.119 0-1.721-1.412-3.119-3.15-3.119zM26.237 241.008c-1.578 0-2.858 1.267-2.858 2.83 0 1.564 1.28 2.831 2.858 2.831 1.579 0 2.858-1.267 2.858-2.831 0-1.563-1.28-2.83-2.858-2.83zM8.718 241.008c-1.578 0-2.858 1.267-2.858 2.83 0 1.564 1.28 2.831 2.858 2.831 1.579 0 2.858-1.267 2.858-2.831 0-1.563-1.28-2.83-2.858-2.83zM-8.8 241.008c-1.58 0-2.859 1.267-2.859 2.83 0 1.564 1.28 2.831 2.858 2.831 1.579 0 2.858-1.267 2.858-2.831 0-1.563-1.28-2.83-2.858-2.83zM34.997 223.893c-1.447 0-2.62 1.162-2.62 2.594 0 1.433 1.173 2.595 2.62 2.595 1.446 0 2.62-1.162 2.62-2.595 0-1.432-1.174-2.594-2.62-2.594zM17.477 223.893c-1.446 0-2.62 1.162-2.62 2.595 0 1.432 1.174 2.594 2.62 2.594 1.447 0 2.62-1.162 2.62-2.594 0-1.433-1.173-2.595-2.62-2.595zM-.041 223.893c-1.447 0-2.62 1.162-2.62 2.595 0 1.432 1.173 2.594 2.62 2.594 1.446 0 2.62-1.162 2.62-2.594 0-1.433-1.174-2.595-2.62-2.595zM26.236 206.769c-1.32 0-2.39 1.06-2.39 2.367a2.38 2.38 0 0 0 2.39 2.368 2.38 2.38 0 0 0 2.39-2.368c0-1.307-1.07-2.367-2.39-2.367zM8.72 206.769a2.375 2.375 0 0 0-2.39 2.367 2.375 2.375 0 0 0 2.39 2.368 2.375 2.375 0 0 0 2.391-2.368 2.375 2.375 0 0 0-2.39-2.367zM-8.798 206.769c-1.32 0-2.39 1.06-2.39 2.367a2.38 2.38 0 0 0 2.39 2.368 2.38 2.38 0 0 0 2.39-2.368c0-1.307-1.07-2.367-2.39-2.367zM34.998 189.654c-1.19 0-2.161.952-2.161 2.14 0 1.189.961 2.141 2.161 2.141 1.2 0 2.161-.952 2.161-2.141 0-1.188-.961-2.14-2.16-2.14zM17.48 189.645a2.152 2.152 0 0 0-2.162 2.141 2.15 2.15 0 0 0 2.161 2.14 2.15 2.15 0 0 0 2.161-2.14 2.151 2.151 0 0 0-2.16-2.141zM-.04 189.654c-1.19 0-2.161.952-2.161 2.14 0 1.189.961 2.141 2.161 2.141 1.2 0 2.161-.952 2.161-2.141 0-1.188-.961-2.14-2.16-2.14zM26.238 172.531a1.918 1.918 0 0 0-1.922 1.904c0 1.048.864 1.905 1.922 1.905a1.919 1.919 0 0 0 1.923-1.905 1.918 1.918 0 0 0-1.923-1.904zM8.72 172.531a1.918 1.918 0 0 0-1.924 1.904c0 1.048.865 1.905 1.923 1.905a1.919 1.919 0 0 0 1.923-1.905 1.918 1.918 0 0 0-1.923-1.904zM-8.8 172.53a1.918 1.918 0 0 0-1.923 1.905c0 1.048.865 1.904 1.923 1.904a1.918 1.918 0 0 0 1.923-1.904A1.918 1.918 0 0 0-8.8 172.53zM34.997 155.407c-.935 0-1.694.751-1.694 1.677s.759 1.677 1.694 1.677c.935 0 1.693-.751 1.693-1.677s-.758-1.677-1.693-1.677zM17.478 155.407c-.935 0-1.694.751-1.694 1.677s.759 1.677 1.694 1.677c.936 0 1.694-.751 1.694-1.677s-.758-1.677-1.694-1.677zM-.041 155.407c-.936 0-1.694.75-1.694 1.677 0 .926.758 1.677 1.694 1.677.935 0 1.693-.751 1.693-1.677 0-.927-.758-1.677-1.693-1.677zM26.238 138.23a1.51 1.51 0 0 0-1.517 1.503c0 .83.679 1.503 1.517 1.503a1.51 1.51 0 0 0 1.517-1.503c0-.83-.68-1.503-1.517-1.503zM8.719 138.23a1.51 1.51 0 0 0-1.517 1.503c0 .83.679 1.503 1.517 1.503a1.51 1.51 0 0 0 1.517-1.503c0-.83-.68-1.503-1.517-1.503zM-8.8 138.23a1.51 1.51 0 0 0-1.517 1.503c0 .83.68 1.503 1.517 1.503a1.51 1.51 0 0 0 1.517-1.503c0-.83-.679-1.503-1.517-1.503zM34.998 121.054c-.741 0-1.34.594-1.34 1.328 0 .734.599 1.328 1.34 1.328.74 0 1.34-.594 1.34-1.328 0-.734-.6-1.328-1.34-1.328zM17.48 121.054c-.741 0-1.342.595-1.342 1.328 0 .734.6 1.328 1.341 1.328.74 0 1.34-.594 1.34-1.328 0-.733-.6-1.328-1.34-1.328zM-.04 121.054c-.74 0-1.34.594-1.34 1.328 0 .734.6 1.328 1.34 1.328.741 0 1.34-.594 1.34-1.328 0-.734-.599-1.328-1.34-1.328zM26.239 103.878c-.644 0-1.164.515-1.164 1.153s.52 1.153 1.164 1.153c.644 0 1.165-.515 1.165-1.153s-.521-1.153-1.165-1.153zM8.72 103.878c-.644 0-1.164.515-1.164 1.153s.52 1.153 1.164 1.153c.644 0 1.164-.515 1.164-1.153s-.52-1.153-1.164-1.153zM-8.799 103.878c-.644 0-1.164.515-1.164 1.153s.52 1.153 1.164 1.153c.644 0 1.164-.515 1.164-1.153s-.52-1.153-1.164-1.153zM34.995 86.702a.982.982 0 0 0-.988.978c0 .542.441.979.988.979a.982.982 0 0 0 .988-.979.982.982 0 0 0-.988-.978zM17.476 86.702a.982.982 0 0 0-.988.978c0 .542.441.979.988.979a.982.982 0 0 0 .988-.979.982.982 0 0 0-.988-.978zM-.039 86.702a.982.982 0 0 0-.988.978c0 .542.441.979.988.979a.982.982 0 0 0 .988-.979.982.982 0 0 0-.988-.978zM26.238 69.465a.865.865 0 1 0 0 1.73.865.865 0 1 0 0-1.73zM8.718 69.465a.866.866 0 1 0 0 1.73.866.866 0 1 0 0-1.73zM-8.8 69.465a.866.866 0 1 0 0 1.73.866.866 0 1 0 0-1.73zM34.995 52.166a.816.816 0 0 0-.82.813c0 .449.367.812.82.812.453 0 .82-.363.82-.812a.816.816 0 0 0-.82-.813zM17.48 52.166a.817.817 0 0 0-.82.813c0 .449.367.812.82.812.453 0 .82-.363.82-.812a.816.816 0 0 0-.82-.813zM-.04 52.166a.816.816 0 0 0-.82.813c0 .449.368.812.82.812.454 0 .821-.363.821-.812a.816.816 0 0 0-.82-.813zM26.238 34.877a.755.755 0 0 0-.758.751c0 .415.34.751.758.751a.755.755 0 0 0 .76-.75.755.755 0 0 0-.76-.752zM8.72 34.877a.755.755 0 0 0-.76.751c0 .42.336.751.76.751a.75.75 0 0 0 .758-.75.75.75 0 0 0-.758-.752zM-8.8 34.877a.755.755 0 0 0-.758.75c0 .416.34.752.758.752a.755.755 0 0 0 .759-.751.755.755 0 0 0-.759-.752zM34.995 17.464a.816.816 0 0 0-.82.813c0 .448.367.812.82.812.453 0 .82-.363.82-.812a.816.816 0 0 0-.82-.813zM17.48 17.464a.817.817 0 0 0-.82.813c0 .448.367.812.82.812.453 0 .82-.363.82-.812a.816.816 0 0 0-.82-.813zM-.04 17.464a.817.817 0 0 0-.82.813c0 .448.368.812.82.812.454 0 .821-.363.821-.812a.816.816 0 0 0-.82-.813zM26.238 0a.93.93 0 0 0-.936.926.93.93 0 0 0 .936.926.93.93 0 0 0 .935-.926.93.93 0 0 0-.935-.926zM8.719 0a.925.925 0 1 0 0 1.852.926.926 0 1 0 0-1.852zM-8.8 0a.93.93 0 0 0-.935.926.93.93 0 0 0 .935.926.93.93 0 0 0 .935-.926A.93.93 0 0 0-8.8 0z" fill="#32030C"/></svg>