<svg width="2000" height="51" fill="none" xmlns="http://www.w3.org/2000/svg" preserveAspectRatio="none"><path d="M500 26.578V51h1000.19l.07-40.07-38.34.825-36.02-6.912-21.77 2.352-20.87 7.45-19.35 1.286-50.36-3.1-27.22-6.24-21.26 2.88-10.21 4.8-24.26 3.628-12.07.586-3.36.326-9.61-2.793-6.98-3.226-7.84-1.42-12.83.47-10.69 4.272-13.66.95-10.24-.47-8.53 2.198-8.18 1.123-6.41.95h-6.42l-8.54-2.37-9.98-.471-14.96-.47-7.84-1.421-6.42.47-22.8-2.37h-10.69l-22.09-.951-17.817 1.9-12.112 4.743-12.477 1.42-7.476 3.322h-9.262l-13.541-.95-32.065-5.213-19.953-1.42-11.278-1.566-17.946-.806-14.97 2.842-18.303 4.07-21.603.94-12.112-4.53-21.909 2.37-9.246 2.16-22.258 1.162-12.418 1.613-27.217-7.2-28.918 4.32-48.998 1.402-36.531-7.536L560 20l-24.542 7.22L500 26.579zM500 51V26.578L495 24l-7.5 1H479l-7-3.5-6.5 2L458 28h-9.5L436 21l-12-3.5-13 3.5-9-2h-12.5L377 16.5l-7.5 2.5-13 6-13-.5L333 23l-8-1-7.5-4-7.5-1.5h-7l-7.5 1.5-9.5 1-11 1.5-6.5-.5-7 .5-5 3.5-6-1.5-8.5 1-5.5-.5-5.5-1.5-4.5.5-6.5-.5-5.5-1H207l-7.5-1.5-7.5-3-3-1-8 4-5.5 3.5-7 1.5-9-4.5-6.5-.5-9 4-5-2.5-5.5 1L124 27l-7.5-3.5-10 1.5-16 2-13-3.5-6 4.5-8 .5-5.5-3-9 2.5-8-3.5-4.5 2-13 3.5-10-1H5l-5 1v21h500z" fill="#450312"/><path d="m1500.26 10.93-.07 40.07H2000V23h-7.5l-2.5 2-5.5-1-4.5 2.5-4-1.5h-6.5l-7-3-5.5-4.5-5.5 1-5.5-1-7 4.5-8.5-1-14.5 4-4.5 1.5-8-1.5-7.5 2-5-3-7.5-2.5-13 1.5h-4l-3 4-9-.5-4.5-2-7.5 3L1828 24l-5.5-2-7.5 2h-17l-15.5 5.5-7-3-5-.5-5.5-4h-7.5l-7 2-9.5 1-7.5-1h-7l-11.5-2-19.5-1-7.5-1-6 1-3.5-2.5-14 1H1650l-9 1.5h-6.5l-3 2-6.5-1.5-6.5 1.5-11.5-1-9.5-1-6.5 1-4.5-4.5-8.5 2.5-7-1.5-7 1h-9l-5.5 1.5-5.5-1-5.5 1-9 1-8-1-7.5-3.5-6.5-3.5-7.24-3.07z" fill="#450312"/><path d="M2000 23h-7.5l-3 2-3.5-1-3 1-3.5 1.5-3-1.5h-5l-3.5-2h-3.5l-3.5-2-3-3.282h-3.79l-3.21.782-3.79-.782-6.5 4h-5.5L1931.5 21l-4.29.718-5.5 2-5.5.5-3.21 2.5-4.79-1.5h-6l-6.5 1.5-4-2.5h-3l-5.5-3-2 1h-7l-2.5 1.5-4.5-1-4 4.5h-7.71l-2.79-1.5-3.71-1.5-2.79 1.5-5.5 2-3.5-1.5-5-1.5-3-1h-3.5l-3.21-2-3.29 1-3.21 2-4.29-1-3 1-5.5-1h-5l-3.5 1.5-5 1.5-3 1.5-5 1L1777 27l-5.29-.282-3.71-3.5-5.29-1.5h-5l-2.5 1.5h-6.5l-3 1-4.5.5h-3.5l-5-1.5-5 1-6-1.5h-5.5l-3-1-4-.5-3.5-.037h-4l-.12.038-3.14.269-2.64-.682-3.77.548-2.54-1.666h-3.79l-4 1.531-2.63-2.366-3.41.806-3.22-.345-3.32.21-3.34.164-3.58-.835-3.38.014-3.89.23-3.84-.201-.96.98-3.65.258-3.58.27-3.52 1.756-3.52-1.2-5.09 1.978-3.41-1.076-3.42-.086-3.64 1.008-3.65.46-3.36-.364-3.44-.211-2.99-.73-3.01-.691-3.63.493-3.35-.317-.95-.797-4.18 1.531-1.7-2.145-3.55-2.317-3.59-.38-2.67 1.718-4.53 1.878-3.09-2.688-3.47-.528-4.44 2.317-4-1.117-3.34.768-4.12.25-3.51 1.228-3.18-1.353-3.69 1.142-2.14.643-2.62-.662h-2.82l-2.77.95-3.59-.163-4.93.461-7-2.147-5-4.513-6.5-1-4.25-3.772-2.62-.662h-4.82l-2.77.95-3.59-.163-3.55.259-4.69-.634-3.37-.355-3.57.432-3.55.317-3.07-.48-3.74 1.162-2.94-.72-3.05-.384-3.41.048-1.14-1.69-1.92-.691-3.89.345.38.164-4.07-.855-4.03.25-2.7-.365-1.37-1.286-2.79-.413-2.88-.279L1426.76 3l-3.3.614-1.09.98-3.95-.096-1.79 1.785-3.55.912-3.67.173-3.34-.605-3.95.47-.77 1.22-3.06 1.19-2.41 1.584-3.96.922-4.11-.173-.49.5-2.18 1.497-1.91.48-2.87.912-3.13-.883-3.43.902-3.15-.72-3.44.864-3.32.22-3.08-.748-3.28.134-3.27.605-2.4-.883-2.74-.374-1.77-1.056-2.27-.384-1.7.25-3.31-.826-3.38-.356-3.56.432-3.56.317-3.06-.48-3.74 1.162-2.95-.72-3.05-.384-3.4.048-1.15-1.69-1.91-.691-3.9.346.38.163-4.06-.855-4.03.25-2.71-.365-1.37-1.286-2.79-.413-2.87-.278-1.35-2.679-3.3.615-1.08.979-3.96-.096-1.79 1.785-3.54.912-3.68.173-3.34-.605-3.95.47-.76 1.22-3.06 1.19-2.42 1.584-3.95.922-4.12-.173-.49.5-2.18 1.497-1.91.48-2.87.912-3.13-.883-3.43.902-3.15-.72-3.43.864-3.33.221-3.08-.749-3.28.135-3.27.604-2.39-.883-2.74-.374-1.77-1.056-3.62-.327-1.63-1.21.07-.94-1.4-.7-2.18-.51-4.57.154-1.39-2.054-3.59.057-2.76-.125-2.37.567-3.91-.403-3.02.883-2.23.94-2.54 1.22-2.77 1.152-2.98 1.18-3.53-.825-3.13.346-3.21.624-3.33.854-2.74-.48-3.17.883-4.62-1.046-.86-.25.23.922-4.05 1.536-1.97-.615-2.68 1.575-3.28.825-3.62-.048-3.18 1.421-3.39-.326-3.37.105-3.49.077-3.58-.038-2.24-1.306-2.45-.47-2.27-1.066-3.28 1.133-.27.125-3.48-.451-3.6-.02-3.29-.537-3.81.125-3.56-.221-3.25-.941-4.13.211-3.42-1.152-3.29.519-3.34.307-2.56-1.027-2.1-.96-4.59.585-.77-1.785-.97.566-2.58-1.411-3.41.528-3.11-.327-3.66 1.344-3-.816-3.41.365-2.97-.605-2.74-.69-2.9-.404-3.32.144-4.19.73-3.46-.192-3.21-.548-3.48.317-3.75-.72-3.09 1.7-3.995.095-2.815.999-3.275.192-3.087.413-2.875.988-3.028 1.047-2.534.835-2.586 1.027-3.257.759-4.057-.25-2.11 1.843-1.752 1.229-2.985.298-2.535 1.843-3.759-.787-3.317.739-2.696-1.018-2.935-.307-3.665.346-.085-.298-4.27-.768-4.465.48-3.36-.97-3.538-.019-1.293-1.344-1.624-.633-3.377-.164-2.866-.72-2.833-.057-3.852.528-.893-1.594h-3.76l-3.393-.528-3.7.423-3.768.412-3.215-.499-2.73-.998-2.705-.893-2.449-.682-3.079-.096-3.156.096-1.99-1.19-2.271-1.094-3.189-.308-3.445.26-3.232-.23-3.402.44-3.334-.21-3.207 1.843-3.521-1.018-3.266.74-2.722 1.967-3.427.03-3.538-.02-3.037.98-4.627.44-3.113 1.306-3.257 1.143-3.606.47-3.479 1.085-3.632-.7-3.598.68-.119.04-3.138.268-2.645-.682-3.768.548-.247-2.228-1.828-.835-2.79-.7-2.296-.97-2.408-1.037-3.393.269-3.411.806-3.223-.345-3.317.21-3.343.164-3.113 1.2-3.844.98-3.887.23-3.844-.202-.953.98-3.657.258-3.581.27-3.521 1.756-3.513-1.2-5.095 1.978-3.41-1.076-3.419-.086-3.641 1.008-3.648.46-3.36-.364-3.436-.211-2.994-.73-3.011-.691-1.624-1.507-3.351-.317-.953-.797-1.182-1.469-4.695.855-2.416-1.287-3.504-1.17-1.224-.24-2.671 1.718-3.972.46-3.649.73-3.47-.528-1.574.384-2.287.605-3.913.979-4.125.25-3.504 1.228-3.181-1.353-3.691 1.142-2.144.643-2.619-.662h-2.824l-2.764.95-3.59-.163-4.933.461-3.317-.826-3.376-.355-3.564.432-3.555.317-3.062-.48-3.742 1.162-2.943-.72-3.054-.384-3.402.048-1.148-1.69-1.914-.691-3.895.345.383.164-4.066-.855-4.031.25-2.705-.365-1.369-1.286-2.79-.413-2.875-.279-1.344-2.678-3.3.614-1.088.98-3.955-.096-1.786 1.785-3.547.912-3.674.173-3.343-.605-3.946.47-.766 1.22-3.062 1.19-2.415 1.584-3.955.922-4.117-.173-.485.5-2.185 1.497-1.906.48-2.874.912-3.13-.883-3.428.902-3.147-.72-3.436.864-3.326.22-3.079-.748-3.283.134-3.266.605-2.398-.883-2.739-.374-1.769-1.056-3.615-.327L497.5 25l-2.501-1.5-2.499.5-2.501 1h-3l-5 .57-2.499-1.07h-2.501l-3.5-3h-4.5l-2.999 2-3.001 1-4.499 2-4.501 1.172L451 27.5l-3.5-1.5-3-2.5h-4.001l-2.499-1-1.501-1.5-5-1.5H427l-3.001-2.5-3.499 1-2.501 1.5H415l-2.001 1.5L410 22l-3.501-1-3.5-1.5-2.499-1-3.501-.5L394 20l-3.001-1-5.5-.5-5.5-2-5.5-.5-1.999 2.5-3.501 1-3.5 3-2.999 1-3-1-3.001 1.5-4 1.5L349 25l-3.184.5L342 24h-5l-9.5-.984-2.994-.73-3.011-.69-1.624-1.508-3.351-.317-.953-.797-1.182-1.468-4.695.854-2.416-1.287-3.504-1.17-1.224-.24-2.671 1.718-3.972.46-3.649.73-3.47-.528-1.573.384-2.288.605-3.913.98-4.125.249-3.504 1.229-3.181-1.354-3.691 1.142-2.144.644-2.619-.663-2.824 2-2.764.95-3.59-.163-3.933-1.539-4.317 1.174-3.376-.355-3.564.432-3.555-1.683-3.062-.48-3.742 1.162-2.943-.72-3.054-.384-3.402.048-1.148-1.69-1.914-.691-3.895.346.383.163-4.066-.855-4.031.25-2.705-.365-1.369-1.286-2.79-.413-2.875-.279L190.5 16l-3 .5-3.5 2-3.5.82-4.5 2.38-3.5 1.8-5 .5-4.5-3.5h-3.5l-3 1L150 20l-5.5 3-3.5-2-3.5-.5H134l-3.5 2.5-4 .5-3.5 2-4.5-1.5-3.5.5-3.5-1-5-.5-3.5 2.5-3.5.5-3 1h-6L85 25.5h-4.5l-3.5-1-3.5 2.5-4.5 1.5-3-1-3 1-5-3h-3.5l-3 2.5H48l-3.5-3-5.5-.5-3.5 2.5H30l-5.5 3-7.5 1.5-4.5-3h-6l-3 1.5H0" stroke="#0F161F" stroke-width="4"/></svg>