<svg xmlns="http://www.w3.org/2000/svg">
<symbol xmlns="http://www.w3.org/2000/svg" id="promotions" fill="#6c7a89" viewBox="0 0 20 20"><path d="M17.734 5.672h-.998c.615-.6.998-1.437.998-2.365A3.31 3.31 0 0 0 14.427 0c-1.25 0-3.13 1.73-4.255 3.403C9.048 1.729 7.167 0 5.917 0A3.31 3.31 0 0 0 2.61 3.307c0 .928.383 1.765.998 2.365H2.61a.942.942 0 0 0-.943.948v1.89h17.015V6.62a.95.95 0 0 0-.948-.948ZM5.917 4.734v-.005a1.418 1.418 0 0 1-.01-2.833c.63.075 2.173 1.668 2.914 2.838H5.917Zm8.51-.005h-2.899c.741-1.165 2.279-2.763 2.914-2.838.772 0 1.407.635 1.407 1.416a1.43 1.43 0 0 1-1.422 1.422ZM1.667 10.4v7.563c0 .524.423.947.943.947h6.62V10.4H1.666Zm9.453 0v8.51h6.615a.95.95 0 0 0 .947-.947V10.4H11.12Z"/></symbol><symbol xmlns="http://www.w3.org/2000/svg" id="home" width="20" height="20" viewBox="0 0 20 20"><path fill-rule="evenodd" clip-rule="evenodd" d="M5.913 19.167a1.873 1.873 0 0 0 1.875-1.875v-4.125c0-.345.28-.625.625-.625h3.25c.345 0 .625.28.625.625v4.125a1.873 1.873 0 0 0 1.875 1.875h2.196c.993 0 1.814-.774 1.872-1.765l.52-8.825a1.877 1.877 0 0 0-.661-1.541l-6.84-5.788a1.874 1.874 0 0 0-2.423 0l-6.84 5.788c-.45.381-.696.952-.662 1.541l.52 8.825a1.875 1.875 0 0 0 1.872 1.765h2.196Z"/></symbol><symbol viewBox="0 0 24 24" id="casino" width="20" height="20" xmlns="http://www.w3.org/2000/svg"><path d="M21.723 2.001a2.255 2.255 0 0 0-2.156 2.153 2.246 2.246 0 0 0 1.51 2.153v3.54h-2.541v-7.88A1.912 1.912 0 0 0 16.619.054H3.917A1.919 1.919 0 0 0 2 1.967v20.12a1.887 1.887 0 0 0 1.18 1.774 1.9 1.9 0 0 0 .737.139H16.62a1.919 1.919 0 0 0 1.917-1.914V13.58h2.787c.658 0 1.191-.529 1.191-1.181v-6.09a2.228 2.228 0 0 0 1.312-2.965A2.201 2.201 0 0 0 21.723 2ZM8.734 8.604h3.044v5.932H8.734V8.604Zm-4.553 0h3.044v5.932H4.18V8.604Zm12.15 12.98H4.181v-5.23h12.15v5.23Zm0-7.048h-3.043V8.604h3.043v5.932Z"/></symbol><symbol viewBox="0 0 24 24" id="live-casino" width="20" height="20" xmlns="http://www.w3.org/2000/svg"><path d="M17.513 0H6.487C4.804 0 3.5 1.45 3.5 3.188v17.624C3.5 22.55 4.858 24 6.487 24h11.026c1.63 0 2.987-1.45 2.987-3.188V3.188C20.5 1.45 19.142 0 17.513 0ZM6.324 5.217a1.039 1.039 0 0 1-.814-1.043c0-1.102 1.249-2.03 1.629-2.261a.157.157 0 0 1 .217 0c.38.232 1.63 1.16 1.63 2.26 0 .523-.326.928-.76 1.044-.381.058-.707-.058-.924-.347-.272.29-.598.405-.978.347Zm5.92 11.073c-.162.116-.38.116-.488 0-.978-.638-4.237-3.073-4.237-5.913 0-1.334.815-2.435 2.01-2.725a2.535 2.535 0 0 1 2.444.928c.543-.754 1.466-1.16 2.498-.928 1.195.232 2.064 1.391 2.01 2.725-.055 2.84-3.313 5.275-4.237 5.913Zm4.563 5.797a.158.158 0 0 1-.217 0c-.38-.232-1.63-1.16-1.63-2.26 0-.523.326-.928.76-1.044.38-.058.707.058.924.347.217-.29.597-.463.977-.347.49.116.76.521.76 1.043.055 1.101-1.194 2.03-1.574 2.261Z"/></symbol><symbol viewBox="0 0 24 24" id="jackpots" xmlns="http://www.w3.org/2000/svg"><path d="M.618 7.667c-.56 1.868 1.197 3.02 1.197 3.02 2.234 1.465 4.81 1.453 7.366 1.267l.016.095c-2.328.752-4.873 1.603-6.287 3.756-.437.665-.737 1.508-.591 2.31a2.46 2.46 0 0 0 1.286 1.729 2.458 2.458 0 0 0 2.153.019l-.011.058s-.233 1.92 1.61 2.554c1.844.635 3.067-1.074 3.067-1.074 1.236-1.727 2.018-3.842 2.25-5.924 1.082 2.69 1.645 3.137 1.177 7.988a.441.441 0 1 0 .863.187c.593-4.864-.107-5.82-1.238-8.573 1.148 1.764 2.601 3.325 4.607 4.194 0 0 1.928.835 3.182-.659 1.253-1.493.065-3.019.065-3.019l-.04-.043a2.461 2.461 0 0 0 1.837-1.126 2.46 2.46 0 0 0 .212-2.144c-.289-.763-.98-1.331-1.697-1.677-2.32-1.117-4.94-.535-7.323.019l-.036-.09c2.287-1.157 4.502-2.472 5.662-4.879 0 0 .913-1.892-.529-3.205-1.441-1.313-3.014-.188-3.014-.188l-.045.038a2.461 2.461 0 0 0-1.05-1.88 2.46 2.46 0 0 0-2.133-.3c-.774.258-1.37.925-1.744 1.628-1.21 2.273-.736 4.914-.28 7.318l-.039.016c-.846-2.296-1.799-4.805-4.007-6.13-.682-.41-1.537-.675-2.333-.497A2.461 2.461 0 0 0 3.096 3.81a2.46 2.46 0 0 0 .068 2.153l-.058-.01c0 .001-1.928-.154-2.488 1.714Z"/></symbol><symbol viewBox="0 0 20 20" id="sports" xmlns="http://www.w3.org/2000/svg"><path d="M12.118.677c-2.942.294-5.706 1.47-7.824 3.647C2.176 6.442.941 9.206.647 12.09c1.588.706 3.118 1.706 4.353 2.94 1.235 1.236 2.176 2.707 2.882 4.354 2.883-.294 5.647-1.47 7.824-3.647 2.117-2.118 3.353-4.883 3.647-7.824C17.706 7.206 16.176 6.265 15 5.03c-1.412-1.412-2.353-3.06-2.882-4.353Zm1.353 9.53-1.412-1.354-1.177 1.177 1.353 1.353-.882.882L10 10.912 8.824 12.09l1.353 1.353-.883.882-1.353-1.353-.882.883-.883-.883.883-.882-1.353-1.353.882-.883 1.353 1.353 1.177-1.176-1.353-1.353.882-.882L10 9.148l1.177-1.177-1.353-1.353.882-.882 1.353 1.353.882-.883.882.883-.882.882 1.353 1.353-.823.882ZM.588 13.384c0 1.706.236 3.47.883 5.176 1.706.588 3.412.883 5.117.883a11.399 11.399 0 0 0-2.411-3.53 15.231 15.231 0 0 0-3.589-2.53ZM19.412 6.56c0-1.706-.294-3.412-.882-5.118A15.275 15.275 0 0 0 13.47.56c.471 1.117 1.236 2.47 2.413 3.588.94 1 2.176 1.824 3.53 2.412Z"/></symbol><symbol viewBox="0 0 20 20" id="betting" xmlns="http://www.w3.org/2000/svg"><path d="M19 1.761H1c-.6 0-1 .4-1 1v12c0 .6.4 1 1 1h3v2c0 .4.5.6.8.4l3.2-2.4h11c.6 0 1-.4 1-1v-12c0-.6-.4-1-1-1Zm-13.3 10.2H1.9v-6.2h1.5v5.1h2.4l-.2 1.2.1-.1Zm2.5 0H6.7v-6.2h1.5v6.2Zm4.2 0h-1.8l-1.8-6.2h1.6l1.2 5.1 1.1-5.1h1.5l-1.7 6.2h-.1Zm5.8-3.7v1h-1.9v1.6h2.3v1.1h-3.8v-6.2h3.8l-.2 1.1h-2.2v1.5h1.9l.1-.1Z"/></symbol><symbol viewBox="0 0 20 20" id="virtual" xmlns="http://www.w3.org/2000/svg"><path d="M13.571 17.5c.429 0 .715-.273.715-.682 0-.409-.286-.682-.715-.682H6.43c-.429 0-.715.273-.715.682 0 .41.286.682.715.682h7.142ZM8.357 7.818l1.286-.886V5.909l-1.214-.818c-.572.273-1.072.614-1.429 1.09l.429 1.364.928.273Zm.857 2.386-.571.75.428 1.364c.286.068.572.136.929.136.357 0 .643-.068.929-.136l.428-1.364-.571-.75H9.214Zm3.357-2.727L13 6.114a3.65 3.65 0 0 0-1.5-1.023l-1.143.818v.955l1.286.886.928-.273Zm-4.428.887-.929-.273L6 8.909c.071.614.286 1.16.571 1.705h1.5l.572-.75-.5-1.5Zm3.714 0-.5 1.5.572.75h1.5c.285-.478.5-1.091.571-1.705l-1.214-.818-.929.273Z"/><path d="M19.286 2.5H.714C.286 2.5 0 2.773 0 3.182V14.09c0 .409.286.682.714.682h18.572c.428 0 .714-.273.714-.682V3.18c0-.408-.286-.681-.714-.681ZM10 13.068c-2.571 0-4.643-1.977-4.643-4.432 0-2.454 2.072-4.431 4.643-4.431 2.571 0 4.643 1.977 4.643 4.431 0 2.455-2.072 4.432-4.643 4.432Z"/></symbol><symbol viewBox="0 0 20 20" id="challenges" xmlns="http://www.w3.org/2000/svg"><path d="M9.932 5.031c-4.027 0-7.304 3.277-7.304 7.304s3.277 7.304 7.304 7.304 7.304-3.277 7.304-7.304-3.277-7.304-7.304-7.304Zm0 11.478a4.178 4.178 0 0 1-4.174-4.174 4.178 4.178 0 0 1 4.174-4.173 4.178 4.178 0 0 1 4.173 4.173 4.178 4.178 0 0 1-4.173 4.174Z"/><path d="M9.931 9.299a3.039 3.039 0 0 0-3.035 3.035A3.039 3.039 0 0 0 9.93 15.37a3.039 3.039 0 0 0 3.035-3.036A3.039 3.039 0 0 0 9.931 9.3ZM3.627.361H.222l4.07 5.882a8.414 8.414 0 0 1 2.354-1.52L3.627.36Zm5.69 1.255L8.448.361H5.043l2.57 3.715 1.704-2.46Zm.63 2.426c.76 0 1.503.1 2.216.292l2.75-3.973h-3.405l-2.59 3.743a8.554 8.554 0 0 1 1.03-.062Zm5.76 2.201L19.778.361h-3.405l-3.019 4.362a8.41 8.41 0 0 1 2.353 1.52Z"/></symbol><symbol viewBox="0 0 20 20" id="tournament" xmlns="http://www.w3.org/2000/svg"><path d="M15.697 0h-11.4c-.2 0-.4.2-.4.4v7.7c0 3.3 2.7 6.1 6.1 6.1 3.4 0 6.1-2.7 6.1-6.1V.4c0-.2-.2-.4-.4-.4Zm-2.1 6-1.6 1.4.5 2c0 .4-.3.7-.7.5l-1.8-1.1-1.8 1.1c-.3.2-.8 0-.7-.5l.5-2-1.6-1.4c-.3-.3-.1-.8.3-.8l2.1-.2.8-1.9c.2-.4.7-.4.8 0l.8 1.9 2.1.2c.4 0 .6.5.3.8Zm.412 11.7h-2.2c-.3 0-.5-.2-.5-.5v-2.3c-.9.2-1.8.2-2.7 0v2.3c0 .3-.2.5-.5.5h-2.2c-.3 0-.5.2-.5.5v1.3c0 .3.2.5.5.5h8c.3 0 .5-.2.5-.5v-1.3c0-.3-.2-.5-.5-.5h.1ZM18.6 2.4H17v4c1.2-.7 2-1.9 2-3.3v-.3c0-.2-.2-.4-.4-.4ZM.999 2.8v.3c0 1.4.8 2.7 2 3.3v-4h-1.6c-.2 0-.4.2-.4.4Z"/></symbol><symbol viewBox="0 0 20 20" id="crab" xmlns="http://www.w3.org/2000/svg"><path d="M18.04 5.14c-.349.484-.684.952-1.026 1.417-.157.213-.312.43-.492.623-.281.3-.553.336-.927.166-.149-.068-.304-.124-.45-.197-.181-.09-.3-.058-.396.13-.176.343-.374.677-.552 1.02-.236.452-.654.613-1.135.43-.254-.098-.51-.197-.77-.279-.07-.021-.181-.009-.235.035-.707.572-1.391 1.174-1.84 1.973a3.335 3.335 0 0 0-.407 1.135c-.093.66.14.838.701 1 .521.15.984-.011 1.384-.364.077-.067.15-.14.237-.193.317-.196.596-.102.743.275.12-.116.236-.217.338-.329.44-.479.907-.923 1.514-1.193a1.73 1.73 0 0 1 .228-.09c.33-.093.552.048.609.382.04.235.15.309.339.167.177-.134.318-.327.441-.515.144-.22.23-.478.377-.696.331-.498.82-.505 1.196-.039.235.293.344.63.367.996.03.477-.03.94-.201 1.395-.43 1.146-1.227 2.005-2.167 2.751-1.254.997-2.703 1.628-4.208 2.145-1.24.425-2.507.728-3.818.817-1.542.104-3.02-.13-4.362-.931-.862-.515-1.635-1.136-2.139-2.029-.47-.834-.683-1.74-.742-2.682-.088-1.404.077-2.772.668-4.07a10.123 10.123 0 0 1 2.079-2.974 13.91 13.91 0 0 1 4.643-3.104c1.668-.677 3.405-1.07 5.21-1.062a11.26 11.26 0 0 1 4.654 1.005c.437.199.853.45 1.132.852.142.205.27.45.305.693.053.363.041.74.012 1.109-.022.277-.199.472-.493.525-.293.053-.56.015-.756-.238-.011-.015-.028-.027-.06-.055Z"/></symbol><symbol viewBox="0 0 20 20" id="shop" xmlns="http://www.w3.org/2000/svg"><path d="M20 2.5H3.535L3.5 2.208A2.5 2.5 0 0 0 1.018 0H0v1.667h1.018a.833.833 0 0 1 .828.735l1.32 11.224a2.5 2.5 0 0 0 2.482 2.207h11.019v-1.666H5.648a.834.834 0 0 1-.827-.737l-.11-.93h13.486L20 2.5ZM5.833 20a1.667 1.667 0 1 0 0-3.333 1.667 1.667 0 0 0 0 3.333Zm8.334 0a1.667 1.667 0 1 0 0-3.333 1.667 1.667 0 0 0 0 3.333Z"/></symbol><symbol viewBox="0 0 20 20" id="vip" xmlns="http://www.w3.org/2000/svg"><path d="m6.089 6.59 3.91 10.559L13.912 6.59H6.089Zm-1.223 0H.027c.022.341.145.676.366.956L8.678 18.04c.167.21.376.375.61.487L4.866 6.591Zm10.294 0-4.42 11.937c.234-.111.443-.276.61-.487l8.285-10.495c.221-.28.343-.614.365-.955h-4.84ZM10 2.595 6.851 5.418h6.295L10 2.595Zm8.157.474a1.71 1.71 0 0 0-1.455-.803h-5.326l3.514 3.15h4.744L18.157 3.07ZM3.325 2.267c-.595 0-1.138.3-1.455.803L.393 5.418h4.744L8.65 2.267H3.325Z"/></symbol>
</svg>